<?xml version="1.0" encoding="UTF-8"?>
<svg width="752pt" height="752pt" version="1.1" viewBox="0 0 752 752" xmlns="http://www.w3.org/2000/svg">
 <g fill="#adb7e0">
  <path d="m315.95 219.69c0.30859 0 0.92969 0 1.2383-0.30859 2.7852-1.8555 5.2617-3.7148 8.0469-5.2617 0.92969-0.61719 1.2383-1.8555 0.61719-2.7852-0.61719-0.92969-1.8555-1.2383-2.7852-0.61719-2.7852 1.5469-5.5703 3.4062-8.3555 5.2617-0.92969 0.61719-1.2383 1.8555-0.30859 2.7852 0.30859 0.61719 0.92578 0.92578 1.5469 0.92578"/>
  <path d="m449.67 213.5c3.0938 1.5469 5.8828 3.4062 8.668 5.8828 2.168 1.8555 4.0234 3.7148 5.8828 5.8828 0.30859 0.30859 0.92969 0.61719 1.5469 0.61719 0.30859 0 0.92969-0.30859 1.2383-0.61719 0.92969-0.61719 0.92969-1.8555 0.30859-2.7852-1.8555-2.168-4.0234-4.332-6.5-6.1914-3.0938-2.4766-6.1914-4.6445-9.5938-6.1914-0.92969-0.61719-2.168 0-2.4766 0.92969-0.3125 0.92188 0 2.1602 0.92578 2.4727"/>
  <path d="m387.45 230.52c-0.61719 0.92969-0.30859 2.168 0.61719 2.7852 0.30859 0.30859 0.61719 0.30859 0.92969 0.30859 0.61719 0 1.2383-0.30859 1.8555-0.92969 2.7852-4.9531 7.1211-9.5938 12.691-13.621 0.92969-0.61719 1.2383-1.8555 0.61719-2.7852-0.61719-0.92969-1.8555-1.2383-2.7852-0.61719-6.1875 4.3359-11.141 9.5977-13.926 14.859"/>
  <path d="m479.7 269.21c-0.92969 0-2.168 0.61719-2.168 1.8555-0.61719 5.8828-1.8555 12.383-3.4062 18.883-0.30859 0.92969 0.30859 2.168 1.2383 2.4766h0.61719c0.92969 0 1.5469-0.61719 1.8555-1.5469 1.8555-6.8086 3.0938-13.309 3.7148-19.5 0.003906-0.92969-0.61328-1.8594-1.8516-2.168"/>
  <path d="m417.48 226.19c0.30859 0.61719 0.92969 0.92969 1.5469 0.92969 0.30859 0 0.61719 0 0.92969-0.30859 0.92969-0.61719 1.2383-1.8555 0.61719-2.7852-3.4062-5.5703-8.0469-10.523-13.93-14.859-0.92969-0.61719-2.168-0.30859-2.7852 0.30859-0.61719 0.92969-0.30859 2.168 0.30859 2.7852 5.8867 4.3359 10.219 8.9805 13.312 13.93"/>
  <path d="m416.24 212.26h0.61719c4.9531-1.5469 10.215-2.4766 15.168-2.4766h3.4062c1.2383 0 2.168-0.61719 2.168-1.8555 0-0.92969-0.61719-2.168-1.8555-2.168-1.2383 0-2.4766-0.30859-3.7148-0.30859-5.2617 0-10.832 0.92969-16.406 2.7852-0.92969 0.30859-1.5469 1.5469-1.2383 2.4766 0.30469 0.92578 0.92578 1.5469 1.8555 1.5469"/>
  <path d="m414.07 254.98c-0.92969 0.61719-1.2383 1.8555-0.61719 2.7852 0.30859 0.61719 0.92969 0.92969 1.5469 0.92969 0.30859 0 0.61719 0 0.92969-0.30859 6.1914-3.7148 9.5938-10.215 9.5938-17.645v-0.61719c0-0.92969-0.92969-1.8555-1.8555-1.8555-0.92969 0-1.8555 0.92969-1.8555 1.8555v0.61719c-0.003906 5.8789-2.7891 11.141-7.7422 14.238"/>
  <path d="m389.31 248.16c-0.30859-0.61719-0.61719-1.5469-0.92969-2.168-0.30859-0.92969-1.2383-1.5469-2.4766-1.2383-0.92969 0.30859-1.5469 1.2383-1.2383 2.4766 0.30859 0.92969 0.61719 1.8555 1.2383 2.7852 3.0938 5.8828 8.0469 9.9062 13.93 11.145h0.30859c0.92969 0 1.8555-0.61719 1.8555-1.5469 0.30859-0.92969-0.30859-2.168-1.5469-2.4766-4.9531-0.92578-8.9766-4.0234-11.141-8.9766"/>
  <path d="m477.53 255.9c0 0.92969 0.92969 1.8555 1.8555 1.8555h0.30859c0.92969 0 1.8555-0.92969 1.8555-2.168-0.61719-7.1211-2.4766-13.621-5.2617-19.5-0.30859-0.92969-1.5469-1.5469-2.4766-0.92969-0.92969 0.30859-1.5469 1.5469-0.92969 2.4766 2.4805 5.5781 4.0312 11.766 4.6484 18.266"/>
  <path d="m372.6 202.05c6.5 0.30859 12.691 1.8555 18.57 3.7148h0.61719c0.92969 0 1.5469-0.61719 1.8555-1.2383 0.30859-0.92969 0-2.168-1.2383-2.4766-6.1914-2.168-12.691-3.7148-19.809-4.0234-0.92969 0-2.168 0.61719-2.168 1.8555 0.3125 0.92969 1.2422 1.8555 2.1719 2.168"/>
  <path d="m338.24 207.62h0.61719c6.1914-2.4766 12.383-4.0234 18.57-4.9531 0.92969-0.30859 1.8555-1.2383 1.5469-2.168-0.30859-0.92969-1.2383-1.8555-2.168-1.5469-6.5 0.92969-13 2.7852-19.191 5.2617-0.92969 0.30859-1.5469 1.5469-1.2383 2.4766 0.31641 0.30859 1.2461 0.92969 1.8633 0.92969"/>
  <path d="m544.08 530.15c-0.30859 3.0938-2.7852 5.5703-5.8828 5.5703h-324.39c-2.7852 0-4.6445-1.8555-4.9531-4.6445l-16.094-167.46c-0.30859-3.0938 2.4766-6.1914 5.5703-6.1914h1.8555l352.55 0.30859c4.332 0 7.7383 4.0234 7.4297 7.7383zm-98.434-180.15s3.4062-5.5703 8.0469-13.309c0.61719-0.92969 1.8555-1.2383 2.7852-0.61719 0.92969 0.61719 1.2383 1.8555 0.61719 2.7852-4.6445 8.0469-8.0469 13.309-8.0469 13.621-0.30859 0.61719-0.92969 0.92969-1.5469 0.92969-0.30859 0-0.61719 0-0.92969-0.30859-1.2344-0.93359-1.543-2.1719-0.92578-3.1016zm113.29-5.5703h-4.9531v-26.621c0-6.1914-4.9531-11.145-11.145-11.145h-69.953c-1.5469 4.0234-3.4062 8.3555-5.8828 13-0.30859 0.61719-0.92969 1.2383-1.8555 1.2383-0.30859 0-0.61719 0-0.92969-0.30859-0.92969-0.61719-1.2383-1.5469-0.92969-2.4766 1.8555-4.0234 3.7148-7.7383 4.9531-11.453h-167.14l-9.9023-15.785c-1.8555-3.0938-4.9531-4.6445-8.668-4.6445h-80.477c-4.332 0-8.0469 3.7148-8.0469 8.0469v51.074h-3.0938c-7.4297 2.7852-12.691 10.215-11.762 18.883l16.715 170.55c0.92969 9.2852 8.668 16.406 17.953 16.406h323.15c9.2852 0 17.332-7.1211 17.953-16.406l16.715-170.55c2.4727-9.5938-3.7188-17.953-12.695-19.809z"/>
  <path d="m290.88 232.07c0.92969 1.8555 3.0938 2.4766 4.6445 1.8555l13-6.1914c1.8555-0.92969 2.4766-3.0938 1.8555-4.6445-0.92969-1.8555-3.0938-2.4766-4.6445-1.8555l-13 6.1914c-1.8555 0.62109-2.7812 2.7852-1.8555 4.6445"/>
  <path d="m282.83 220 8.9766 3.7148 11.453-5.2617 0.92969-8.9766c-0.30859-4.0234-2.168-5.8828-4.6445-6.1914-2.7852-0.61719-10.832 2.168-7.7383 7.4297-4.332-4.9531-8.668-1.8555-10.523-0.30859-2.168 1.8555-2.168 7.1172 1.5469 9.5938"/>
  <path d="m319.05 243.83c1.2383-2.168 0.92969-4.6445-1.8555-7.4297l-7.7383-5.2617-11.453 5.2617-3.0938 8.9766c-0.61719 4.332 3.7148 8.0469 6.1914 7.4297 2.4766-0.61719 7.7383-1.5469 6.8086-8.0469 2.4766 5.5703 9.5938 1.5469 11.141-0.92969"/>
 </g>
</svg>
